# xmcd
#
# Track frame offsets: 
#        150
#        28117
#        40427
#        57970
#        68442
#        91312
#        126942
#        155382
#        184902
#        210540
#
# Disc length: 3129 seconds
#
# Revision: 2
# Processed by: cddbd v1.5.2PL0 Copyright (c) Steve Scherf et al.
# Submitted via: ExactAudioCopyFreeDBPlugin 1.0
#
DISCID=860c370a
DTITLE=華倫.威爾斯(Warren Wills) - 鋼琴小品2～往日情懷
DYEAR=2004
DGENRE=Blues
TTITLE0=Moon River
TTITLE1=On The Street Where You Live
TTITLE2=Sand In The Clowns
TTITLE3=Satin Doll
TTITLE4=What Are You Doing The Rest Of Your Life
TTITLE5=West Side Story
TTITLE6=Warsaw Concerto
TTITLE7=My Funny Valentine
TTITLE8=Windmills Of Your Mind
TTITLE9=Homage To Liszt
EXTD=
EXTT0=
EXTT1=
EXTT2=
EXTT3=
EXTT4=
EXTT5=
EXTT6=
EXTT7=
EXTT8=
EXTT9=
PLAYORDER=
